<svg xmlns="http://www.w3.org/2000/svg" version="1.1" xmlns:xlink="http://www.w3.org/1999/xlink" width="1500" height="1500" viewBox="0 0 1500 1500"><rect width="1500" height="1500" x="0" y="0" id="background" stroke="transparent" fill="#111111"></rect><svg xml:space="preserve" width="1000" height="1000" data-version="2" data-id="lg_t0hIvmeQBHP9F3KxZW" viewBox="0 0 340 67" x="250" y="250"><rect width="100%" height="100%" fill="transparent"></rect><path fill="#ffffff" d="M19.085 60.845q-3.47 0-5.23-1.7-1.76-1.7-1.76-4.73l.12-1.38q0-.51-.25-.51l-.38.26q-1.51 2.52-3.15 4.63t-2.52 2.99l-.88.82q-.88.82-1.32.82-.44 0-.44-.76 0-1.01.63-2.46.94-2.08 2.61-5.57 1.67-3.5 6.68-12.41 5.01-8.92 9.73-15.72 4.79-6.93 7.44-9.45.94-.95 1.45-.95.31 0 .31.51 0 .12-.13.88-.56 2.52-4.47 9.26-7.81 12.73-11.34 20.66-2.33 4.48-2.33 8.26 0 2.14 1.13 3.49 1.14 1.36 3.15 1.36 2.9 0 5.64-2.33 2.74-2.33 4.57-5.61 1.83-3.28 2.96-6.68 1.14-3.4 1.14-5.73 0-5.61-5.17-6.8-.06-.26-.06-.51 0-.75.88-.88 4.85 0 8.63-3.62 3.78-3.63 3.78-8.35 0-2.65-1.95-4.69-1.96-2.05-7.25-2.05-5.73 0-9.26 3.15-3.53 3.15-3.53 7.18 0 1.13.44 2.08.26.5.26.82 0 .38-.38.38-.32 0-.57-.13-.44-.19-1.07-.5-.63-.32-1.67-1.58t-1.04-2.77q0-4.16 5.1-7.15 5.11-2.99 12.35-2.99.76 0 1.73.06.98.06 3.19.57 2.2.5 3.87 1.35 1.67.85 2.99 2.68 1.33 1.83 1.33 4.28 0 2.59-1.23 4.76t-3.28 3.65q-2.05 1.48-4.28 2.43-2.24.94-4.63 1.45-.44.19-.44.38 0 .12.37.31.19.13.57.32.38.18 1.29 1 .92.82 1.64 1.8.72.98 1.29 2.68.57 1.7.57 3.59 0 7.24-5.39 13.2-5.38 5.95-12.44 5.95"></path><rect width="41.77" height="51.66" x="-20.89" y="-25.83" fill="none" rx="0" ry="0" transform="translate(24.66 36.72)"></rect><path fill="#ffffff" d="M53.235 55.175q-5.23 4.79-7.19 4.79-.88 0-.88-1.01 0-1.26 1.1-3.84 1.11-2.59 2.24-4.54l1.13-1.95q.26-.44.26-.57 0-.13-.13-.13-.25 0-.94.7-1.89 2.08-4.32 4.44-2.43 2.36-3.94 3.68l-1.45 1.26q-2.45 1.89-3.78 1.89-1.38 0-1.38-2.14 0-1.07.6-3.27.59-2.21.91-2.96 1.45-3.53 3.62-6.87 2.18-3.34 5.14-6.4 2.96-3.05 6.9-4.94 3.93-1.89 8.15-1.89 3.53 0 3.53 1.07 0 .63-1.57.63-5.8 0-10.87 4.95-5.07 4.94-8.22 11.37-.88 1.76-.88 2.96 0 .69.44.69.75 0 1.95-1.07.76-.69 2.05-1.83 1.29-1.13 4.19-4.34 2.89-3.22 4.6-5.99.25-.5.78-1.2.54-.69 2.05-1.85 1.51-1.17 3.02-1.17.82 0 .82.44 0 .13-.19.44-.25.51-1.41 2.52-1.17 2.02-2.18 3.81-1 1.8-2.14 3.91-1.13 2.11-1.79 3.62-.67 1.51-.67 2.02 0 .38.32.38.94 0 4.6-3.66 2.77-2.9 6.49-7.12.19-.19.31-.19.13 0 .13.26 0 1.19-.95 2.33-6.17 6.86-10.45 10.77"></path><rect width="30.68" height="28.54" x="-15.34" y="-14.27" fill="none" rx="0" ry="0" transform="translate(49.8 46.2)"></rect><path fill="#ffffff" d="M72.255 51.965q-1.13 3.08-3.59 5.19-2.46 2.11-4.57 2.87-2.11.76-3.81.76-4.6 0-4.6-3.59 0-3.66 4.03-6.62 1.89-1.39 4.1-1.83.31 0 .31.26 0 .12-.12.25-1.58 1.19-2.99 3.71-1.42 2.52-1.42 4.41 0 1.89 1.57 1.89 1.26 0 2.49-1.03 1.23-1.04 1.86-2.12l.63-1q1.26-2.02 2.11-6.43.85-4.41 1.1-7.81l.19-3.4q0-.51-.19-.51l-.25.13-6.24 7.31q-.69.82-.94.82-.32 0-.32-.45 0-.81.45-1.26l.56-.69q7.18-8.06 8.19-9.76.95-1.45 2.77-2.52 1.77-1.01 4.16-1.01.63 0 .63.5 0 .32-.5.57-.19.06-.47.28-.29.22-1.01 1.04-.73.82-1.29 1.89-.57 1.07-1.01 3-.44 1.92-.44 4.25 0 7.24-1.39 10.9"></path><rect width="22.68" height="31.25" x="-11.34" y="-15.63" fill="none" rx="0" ry="0" transform="translate(67.53 45.66)"></rect><path fill="#ffffff" d="M109.305 49.635q2.64-2.65 6.99-7.63.19-.19.31-.19.13 0 .13.26 0 1.19-.95 2.33-4.66 5.16-8.25 8.63-7.43 6.93-9.76 6.93-1.01 0-1.01-1.2t1.29-3.97q1.29-2.77 2.58-5.04t3.28-5.54q1.98-3.28 2.11-3.53 1.13-1.83 1.13-2.33 0-.32-.31-.32l-.88.32q-2.9 2.08-6.93 6.46-4.04 4.37-6.62 7.65l-2.58 3.34q-2.9 4.16-5.67 4.16-.82 0-.82-.51 0-.56 1.2-2.99 1.19-2.42 2.39-4.57l1.2-2.14q.44-.88 2.17-3.81t2.9-5.04q1.16-2.11 1.16-2.61 0-.32-.25-.32l-.88.38q-2.96 2.08-6.99 6.46-4.03 4.37-6.55 7.65l-2.59 3.34q-2.96 4.09-5.67 4.09-.82 0-.82-.44 0-.56 1.2-2.99 1.2-2.42 2.39-4.57l1.2-2.14 6.11-10.83q1.51-2.84 3.66-5.08 2.14-2.23 4.47-2.23.5 0 .5.44 0 .38-.72 1.61-.73 1.22-2.08 3.4-1.35 2.17-2.3 4-.57 1.07-1.35 2.42-.79 1.36-1.3 2.27-.5.91-.69 1.29-.19.38-.19.57 0 .13.13.13.19 0 .63-.45 1.2-1.38 3.12-3.46 1.92-2.08 6.52-6.27 4.6-4.19 7.56-5.64.63-.31 1.26-.31.88 0 .88.88 0 1.64-3.72 8.5-.31.57-1.29 2.21-.98 1.64-1.64 2.83-.66 1.2-.66 1.52 0 .19.13.19.19 0 .63-.45 1.19-1.38 3.12-3.46 1.92-2.08 6.49-6.27 4.56-4.19 7.52-5.64.76-.31 1.33-.31.94 0 .94.88 0 .25-.25 1.1-.25.85-1.45 3.47-1.2 2.61-3.15 5.76-4.79 7.37-4.79 9.26 0 .57.38.57 1.07 0 4.1-3.02"></path><rect width="46.12" height="28.35" x="-23.06" y="-14.18" fill="none" rx="0" ry="0" transform="translate(94.17 46.29)"></rect><path fill="#ffffff" d="M127.825 55.175q-5.23 4.79-7.18 4.79-.89 0-.89-1.01 0-1.26 1.11-3.84 1.1-2.59 2.23-4.54l1.14-1.95q.25-.44.25-.57 0-.13-.13-.13-.25 0-.94.7-1.89 2.08-4.32 4.44-2.42 2.36-3.94 3.68l-1.44 1.26q-2.46 1.89-3.78 1.89-1.39 0-1.39-2.14 0-1.07.6-3.27.6-2.21.91-2.96 1.45-3.53 3.62-6.87 2.18-3.34 5.14-6.4 2.96-3.05 6.9-4.94 3.93-1.89 8.16-1.89 3.52 0 3.52 1.07 0 .63-1.57.63-5.8 0-10.87 4.95-5.07 4.94-8.22 11.37-.88 1.76-.88 2.96 0 .69.44.69.75 0 1.95-1.07.76-.69 2.05-1.83 1.29-1.13 4.19-4.34 2.9-3.22 4.6-5.99.25-.5.79-1.2.53-.69 2.04-1.85 1.51-1.17 3.03-1.17.82 0 .82.44 0 .13-.19.44-.26.51-1.42 2.52-1.17 2.02-2.17 3.81-1.01 1.8-2.15 3.91-1.13 2.11-1.79 3.62-.66 1.51-.66 2.02 0 .38.31.38.95 0 4.6-3.66 2.77-2.9 6.49-7.12.19-.19.31-.19.13 0 .13.26 0 1.19-.94 2.33-6.18 6.86-10.46 10.77"></path><rect width="30.68" height="28.54" x="-15.34" y="-14.27" fill="none" rx="0" ry="0" transform="translate(124.39 46.2)"></rect><path fill="#ffffff" d="M150.315 28.465q4.47-3.15 8.03-7.15 3.56-4 5.42-7.37 1.86-3.37 2.8-5.83.95-2.46.95-3.53 0-.63-.44-.63-.89 0-2.15 1.26-2.39 2.39-5.41 6.93-3.03 4.54-4.89 7.78-1.85 3.25-4.82 8.66.26 0 .51-.12m-6.74 21.17q2.64-2.65 6.99-7.63.19-.19.32-.19.12 0 .12.26 0 1.19-.94 2.33-4.67 5.16-8.26 8.63-7.87 7.43-10.01 7.43-.95 0-.95-1.32 0-.69.16-1.51.16-.82.53-1.8.38-.98.67-1.64.28-.66.82-1.89l.72-1.67q1.76-3.97 10.84-20.91 12.41-22.62 22.8-27.79 1.51-.75 3.03-.75 1.76 0 1.76 1.64 0 3.78-2.58 8.28-2.59 4.51-6.3 8.29-3.72 3.78-7.28 6.61-3.56 2.84-6.14 4.28-.38.13-.7.57-2.77 4.47-5.41 9.61-2.65 5.13-3.97 8.09l-1.26 2.9q-.32.95-.32 1.26 0 .57.44.57 1.26 0 4.92-3.65"></path><rect width="41.33" height="59.28" x="-20.66" y="-29.64" fill="none" rx="0" ry="0" transform="translate(152.01 31.32)"></rect><path fill="#ffffff" d="M162.095 55.175q-5.23 4.79-7.18 4.79-.88 0-.88-1.01 0-1.26 1.1-3.84 1.1-2.59 2.23-4.54l1.14-1.95q.25-.44.25-.57 0-.13-.13-.13-.25 0-.94.7-1.89 2.08-4.32 4.44-2.42 2.36-3.93 3.68l-1.45 1.26q-2.46 1.89-3.78 1.89-1.39 0-1.39-2.14 0-1.07.6-3.27.6-2.21.91-2.96 1.45-3.53 3.63-6.87 2.17-3.34 5.13-6.4 2.96-3.05 6.9-4.94 3.94-1.89 8.16-1.89 3.53 0 3.53 1.07 0 .63-1.58.63-5.8 0-10.87 4.95-5.07 4.94-8.22 11.37-.88 1.76-.88 2.96 0 .69.44.69.76 0 1.95-1.07.76-.69 2.05-1.83 1.29-1.13 4.19-4.34 2.9-3.22 4.6-5.99.25-.5.79-1.2.53-.69 2.04-1.85 1.52-1.17 3.03-1.17.82 0 .82.44 0 .13-.19.44-.25.51-1.42 2.52-1.16 2.02-2.17 3.81-1.01 1.8-2.14 3.91-1.14 2.11-1.8 3.62-.66 1.51-.66 2.02 0 .38.31.38.95 0 4.6-3.66 2.77-2.9 6.49-7.12.19-.19.32-.19.12 0 .12.26 0 1.19-.94 2.33-6.18 6.86-10.46 10.77"></path><rect width="30.68" height="28.54" x="-15.34" y="-14.27" fill="none" rx="0" ry="0" transform="translate(158.66 46.2)"></rect><path fill="#ffffff" d="M197.125 28.845q-4.48 0-4.48 8.31v.44q0 .82-.37.82-.95 0-1.42-2.27-.47-2.26-.47-3.84 0-2.58 1.16-4.6 1.17-2.01 3.62-2.01 4.86 0 9.33 5.67 3.78-4.41 8.09-8.92 4.32-4.5 6.71-6.77l2.4-2.33q3.9-5.86 6.42-5.86.63 0 .63.57 0 .37-.25.88-5.54 10.9-10.14 24.57-5.8 17.39-5.8 26.65 0 2.89.7 4.22.25.31.25.63 0 .44-.76.44-1.7 0-2.83-.85-1.14-.85-1.61-2.24-.47-1.38-.66-2.49-.19-1.1-.19-2.23 0-1.89.69-5.61.7-3.72.7-5.42 0-2.52-1.11-5.95-1.1-3.44-2.93-6.27-2.01 2.77-3.68 5.54-1.67 2.78-2.36 4.1l-.63 1.38q-2.27 4.67-4.48 8.51-2.2 3.84-3.27 5.35l-1.07 1.45q-.7.82-1.26.82-.7 0-.7-1.45.19-8.88 16.13-27.53-3.09-3.71-6.36-3.71m21.61-9.9q-6.93 6.05-12.98 14.18 2.64 4.03 4.09 9.2.19.56.32.56l.31-.56q1.58-5.36 3.82-11.12 2.23-5.77 3.68-8.85l1.45-3.03q.19-.38.19-.5 0-.13-.19-.13Z"></path><rect width="41.39" height="57.96" x="-20.7" y="-28.98" fill="none" rx="0" ry="0" transform="translate(208.55 36.97)"></rect><path fill="#ffffff" d="M237.635 49.635q2.64-2.65 6.99-7.63.19-.19.31-.19.13 0 .13.26 0 1.19-.94 2.33-4.67 5.16-8.26 8.63-7.56 6.99-9.95 6.99-.95 0-.95-1.2 0-2.26 2.59-6.89 2.58-4.64 5.13-8.64 2.55-4 2.55-4.69 0-.38-.38-.38-1.51 0-5.73 4.66-4.22 4.67-7.12 8.38-3.21 4.04-5.57 6.43-2.37 2.39-3.12 2.71l-.82.38q-.57 0-.57-.63 0-1.01 1.14-3.59 1.13-2.59 2.26-4.67l1.14-2.08 9.83-17.64q11.59-20.47 18.27-29.1 1.89-2.52 2.64-2.52.38 0 .38.5 0 1.33-2.02 5.42-9.89 17.83-13.73 24.7-2.33 4.15-4.22 7.4-1.89 3.24-2.68 4.57-.79 1.32-1.35 2.3-.57.97-.88 1.67-.07.18-.07.37 0 .32.13.32.12 0 .5-.38 14.11-15.69 18.52-15.69.89 0 .89.89 0 .25-.26 1.1-.25.85-1.44 3.43-1.2 2.58-3.15 5.73-1.2 1.77-3.03 5.04-1.83 3.28-1.83 4.29 0 .57.57.57.19 0 .54-.16.34-.16.78-.54.45-.38.79-.69.35-.32 1.01-.91.66-.6.98-.85"></path><rect width="35.66" height="60.23" x="-17.83" y="-30.11" fill="none" rx="0" ry="0" transform="translate(230.25 31.17)"></rect><path fill="#ffffff" d="M273.355 49.635q2.64-2.65 6.99-7.63.19-.19.32-.19.12 0 .12.26 0 1.19-.94 2.33-4.67 5.16-8.26 8.63-7.43 6.93-9.76 6.93-1.01 0-1.01-1.2t1.29-3.97q1.29-2.77 2.59-5.04 1.29-2.27 3.27-5.54 1.99-3.28 2.11-3.53 1.14-1.83 1.14-2.33 0-.32-.32-.32l-.88.32q-2.9 2.08-6.93 6.46-4.03 4.37-6.62 7.65l-2.58 3.34q-2.9 4.16-5.67 4.16-.82 0-.82-.51 0-.56 1.2-2.99 1.2-2.42 2.39-4.57l1.2-2.14q.44-.88 2.17-3.81 1.74-2.93 2.9-5.04 1.17-2.11 1.17-2.61 0-.32-.26-.32l-.88.38q-2.96 2.08-6.99 6.46-4.03 4.37-6.55 7.65l-2.59 3.34q-2.96 4.09-5.67 4.09-.81 0-.81-.44 0-.56 1.19-2.99 1.2-2.42 2.4-4.57l1.19-2.14 6.11-10.83q1.52-2.84 3.66-5.08 2.14-2.23 4.47-2.23.51 0 .51.44 0 .38-.73 1.61-.72 1.22-2.08 3.4-1.35 2.17-2.3 4-.56 1.07-1.35 2.42-.79 1.36-1.29 2.27-.51.91-.7 1.29-.19.38-.19.57 0 .13.13.13.19 0 .63-.45 1.2-1.38 3.12-3.46 1.92-2.08 6.52-6.27 4.6-4.19 7.56-5.64.63-.31 1.26-.31.88 0 .88.88 0 1.64-3.72 8.5-.31.57-1.29 2.21-.97 1.64-1.63 2.83-.67 1.2-.67 1.52 0 .19.13.19.19 0 .63-.45 1.2-1.38 3.12-3.46 1.92-2.08 6.49-6.27 4.56-4.19 7.53-5.64.75-.31 1.32-.31.94 0 .94.88 0 .25-.25 1.1-.25.85-1.45 3.47-1.19 2.61-3.15 5.76-4.79 7.37-4.79 9.26 0 .57.38.57 1.07 0 4.1-3.02"></path><rect width="46.11" height="28.35" x="-23.05" y="-14.18" fill="none" rx="0" ry="0" transform="translate(258.23 46.29)"></rect><path fill="#ffffff" d="M290.865 37.785q.76-1.57.76-2.77 0-1.01-.63-1.01-.38 0-.85.22-.48.22-.73.47l-.31.26q-1.96 1.7-4.88 6.2-2.93 4.51-2.93 5.77 0 .25.12.25.38 0 1.67-.63t3.72-2.96q2.42-2.33 4.06-5.8m-2.83 14.43q3.34-3.09 9.57-10.21.19-.19.32-.19.12 0 .12.26 0 1.19-.94 2.33-4.66 5.16-8.25 8.63-2.65 2.64-6.3 5.07-3.66 2.42-6.05 2.42-2.9 0-2.9-4.03 0-6.68 4.95-13.98 4.94-7.31 11.43-9.89 2.71-1.14 4.91-1.14 2.46 0 2.46 1.95 0 3.66-5.17 8.38-5.16 4.73-11.59 7.19-.25.06-.44.44-.94 2.58-.94 4.6 0 2.26 1.7 2.26 2.71 0 7.12-4.09"></path><rect width="24.44" height="29.04" x="-12.22" y="-14.52" fill="none" rx="0" ry="0" transform="translate(286.32 46.5)"></rect><path fill="#ffffff" d="M299.245 52.405q.38-.32 1.04-.92.66-.59 2.55-2.52 1.89-1.92 3.62-3.96 1.74-2.05 3.85-5.08 2.11-3.02 3.62-5.98.06-.13.06-.25l-.06-.19q-.44-.25-1.01-.25-2.71 0-6.71 4.03t-6.8 8.66q-2.81 4.63-2.81 6.65 0 .88.7.88.75 0 1.95-1.07m13.92-2.77q2.65-2.65 7-7.63.19-.19.31-.19.13 0 .13.26 0 1.19-.95 2.33-4.66 5.16-8.25 8.63-7.43 6.93-9.77 6.93-.88 0-.88-.95 0-1.19 1.2-3.78 1.2-2.58 2.46-4.6l1.19-2.01q.26-.32.26-.57 0-.13-.13-.13-.25 0-.69.45-1.96 2.26-4.48 4.66-2.52 2.39-4.09 3.71l-1.51 1.26q-2.52 1.96-3.78 1.96l-.26-.07q-1.07-.06-1.07-1.89 0-4.78 3.37-10.93 3.37-6.14 8.73-10.67 5.35-4.54 10.33-4.54.51 0 .95.09.44.1.66.16.22.06.41.19l.19.06q.12 0 .31-.19 11.66-21.04 17.89-29.04 1.89-2.52 2.71-2.52.32 0 .32.51 0 1.32-2.02 5.41-9.7 17.77-13.61 24.64-6.99 12.47-8.5 14.99-3.09 5.29-3.09 6.43 0 .44.38.44.31 0 .72-.22t.92-.66l.91-.82q.41-.38.98-.95.56-.57.75-.75"></path><rect width="45.87" height="59.35" x="-22.93" y="-29.68" fill="none" rx="0" ry="0" transform="translate(313.29 30.79)"></rect></svg></svg>